<svg width="514" height="514" viewBox="0 0 514 514" fill="none" xmlns="http://www.w3.org/2000/svg">
<g clip-path="url(#clip0_18_5123)">
<path fill-rule="evenodd" clip-rule="evenodd" d="M257.119 0.988342C272.571 0.988348 285.097 13.7298 285.097 29.4473V55.6669C285.097 91.5064 330.18 106.408 350.887 77.413L366.038 56.2011C375.119 43.4853 392.615 40.6666 405.115 49.9051C417.614 59.1436 420.386 76.9409 411.304 89.6565L396.154 110.869C375.445 139.864 403.309 178.876 436.816 167.801L461.33 159.698C476.024 154.842 491.807 163.023 496.581 177.97C501.356 192.918 493.315 208.974 478.619 213.831L454.106 221.933C420.599 233.007 420.599 281.23 454.106 292.305L478.619 300.406C493.315 305.263 501.356 321.319 496.581 336.268C491.807 351.215 476.024 359.396 461.33 354.54L436.817 346.436C403.31 335.362 375.447 374.374 396.156 403.369L411.304 424.582C420.387 437.297 417.616 455.095 405.116 464.333C392.615 473.571 375.121 470.752 366.038 458.037L350.886 436.821C330.178 407.828 285.095 422.728 285.095 458.567V484.79C285.095 500.508 272.57 513.249 257.119 513.249C241.667 513.249 229.142 500.508 229.142 484.79V458.57C229.142 422.731 184.058 407.829 163.351 436.825L148.2 458.037C139.118 470.752 121.623 473.571 109.123 464.333C96.6231 455.095 93.8521 437.297 102.934 424.582L118.084 403.369C138.793 374.374 110.93 335.362 77.4224 346.436L52.9085 354.54C38.2139 359.396 22.4311 351.215 17.6565 336.268C12.882 321.319 20.9237 305.263 35.6183 300.406L60.1316 292.305C93.6387 281.23 93.6387 233.007 60.1316 221.933L35.6183 213.831C20.9237 208.974 12.8819 192.918 17.6565 177.97C22.4311 163.023 38.2139 154.842 52.9085 159.698L77.4214 167.801C110.929 178.876 138.792 139.864 118.083 110.869L102.933 89.6565C93.8515 76.9409 96.6224 59.1436 109.122 49.9051C121.622 40.6666 139.118 43.4853 148.199 56.2011L163.352 77.4159C184.06 106.411 229.143 91.5093 229.143 55.6698V29.4473C229.143 13.7298 241.668 0.988342 257.119 0.988342ZM257.119 129.431C264.845 129.431 271.107 135.783 271.107 143.619V156.69C271.107 174.557 293.65 181.986 304.004 167.531L311.579 156.956C316.12 150.617 324.867 149.212 331.118 153.818C337.367 158.423 338.752 167.295 334.212 173.635L326.637 184.21C316.282 198.665 330.214 218.113 346.968 212.592L359.224 208.552C366.571 206.131 374.462 210.208 376.85 217.662C379.237 225.114 375.217 233.118 367.87 235.538L355.613 239.577C338.86 245.098 338.86 269.139 355.613 274.661L367.87 278.699C375.217 281.12 379.237 289.124 376.85 296.576C374.462 304.029 366.571 308.106 359.224 305.686L346.968 301.645C330.214 296.124 316.282 315.574 326.637 330.028L334.212 340.603C338.752 346.942 337.367 355.814 331.118 360.419C324.867 365.025 316.12 363.621 311.579 357.282L304.002 346.705C293.648 332.25 271.107 339.679 271.107 357.546V370.618C271.107 378.454 264.844 384.806 257.119 384.806C249.393 384.806 243.131 378.454 243.131 370.618V357.548C243.131 339.681 220.589 332.251 210.234 346.707L202.659 357.282C198.118 363.621 189.371 365.025 183.12 360.419C176.871 355.814 175.486 346.942 180.026 340.603L187.602 330.028C197.956 315.573 184.024 296.124 167.272 301.645L155.014 305.686C147.667 308.106 139.775 304.029 137.388 296.576C135 289.124 139.021 281.12 146.369 278.699L158.625 274.661C175.378 269.139 175.378 245.098 158.625 239.577L146.369 235.538C139.021 233.118 135 225.114 137.388 217.662C139.775 210.208 147.667 206.131 155.014 208.552L167.27 212.592C184.024 218.113 197.956 198.663 187.602 184.21L180.026 173.635C175.486 167.295 176.871 158.423 183.12 153.818C189.371 149.212 198.118 150.617 202.659 156.956L210.236 167.532C220.59 181.988 243.131 174.558 243.131 156.691V143.619C243.131 135.783 249.395 129.431 257.119 129.431Z" fill="white"/>
</g>
<defs>
<clipPath id="clip0_18_5123">
<rect width="514" height="514" fill="white"/>
</clipPath>
</defs>
</svg>
